<svg width="682" height="382" version="1.1" xmlns="http://www.w3.org/2000/svg" desc="Created with imagetracer.js version 1.2.6" ><path fill="rgb(3,2,3)" stroke="rgb(3,2,3)" stroke-width="1" opacity="1" d="M 0 0 L 306.5 0 L 307.5 1 L 308.5 0 L 324 0 L 324.5 2 L 326.5 0 L 339 0 L 339.5 8 Q 342.1 5.5 341 0 L 354 0 L 354 9.5 L 355.5 12 L 357 0 L 368.5 0 L 370 1.5 Q 369.1 6.9 371.5 9 L 372 1.5 L 371.5 0 L 402.5 0 L 403.5 1 L 404.5 0 L 682 0 L 682 382 L 0 382 L 0 0 Z M 27 37 L 25 39 L 25 53 L 28 53 L 31 42 Q 36 39 44 40 L 44 48 L 45 49 L 44 88 L 40 90 Q 34 89 36 93 L 61 93 L 61 90 Q 55 91 53 88 L 53 42 L 55 40 L 60 40 L 66 42 L 71 54 L 72 53 L 72 39 L 71 37 L 27 37 Z M 92 37 L 92 40 Q 93 42 98 41 L 99 44 L 99 87 L 98 89 L 96 90 Q 90 89 92 93 L 115 93 L 115 92 L 108 89 L 107 86 L 107 72 L 108 66 L 132 66 L 132 88 L 129 90 Q 123 89 125 93 L 148 93 L 148 90 L 143 89 L 141 88 L 141 43 L 147 40 L 147 37 L 127 37 L 125 40 L 132 43 L 132 63 L 108 63 L 107 61 L 107 45 L 108 43 L 114 40 L 114 37 L 92 37 Z M 168 37 L 168 40 Q 169 42 174 41 L 174 75 L 175 76 Q 176 84 174 89 L 167 92 L 169 93 L 210 93 L 210 78 L 209 77 Q 205 80 205 86 L 202 89 Q 197 88 196 90 Q 189 91 186 89 L 183 87 L 183 68 L 185 66 L 194 66 L 199 74 L 200 73 L 200 58 L 200 56 Q 201 53 197 54 L 196 60 L 191 63 Q 185 64 183 62 L 183 41 L 201 41 L 204 46 L 205 52 L 208 52 L 208 39 L 207 37 L 168 37 Z M 113 148 L 100 185 L 89 210 Q 88 213 83 212 Q 79 214 84 216 L 102 216 L 102 212 Q 96 214 94 210 Q 95 199 100 193 L 101 191 L 122 191 L 124 194 L 129 210 Q 127 213 121 212 L 123 216 L 147 216 L 148 215 Q 149 210 144 212 L 137 203 L 135 195 L 117 150 L 117 148 L 113 148 Z M 390 148 L 379 153 L 369 164 L 365 178 Q 364 195 371 204 Q 378 214 393 217 L 404 217 L 416 212 L 424 204 L 428 196 L 430 187 Q 431 168 423 160 L 412 150 Q 403 146 390 148 Z M 25 149 L 25 152 L 32 153 L 33 155 L 33 210 Q 31 213 25 212 L 27 216 L 49 216 L 50 215 Q 54 216 53 214 Q 52 211 47 212 L 44 210 L 44 187 L 60 186 L 67 183 Q 73 179 75 171 Q 76 160 71 156 L 63 150 L 58 149 L 25 149 Z M 159 149 L 158 167 L 162 168 L 165 157 L 170 153 Q 176 155 178 152 Q 181 151 182 154 L 182 209 L 181 211 L 178 212 L 172 212 L 172 215 L 174 216 L 202 216 L 203 214 L 202 212 Q 195 213 193 211 L 192 209 L 192 154 L 194 152 L 206 153 Q 211 158 212 167 Q 211 169 215 168 L 215 149 L 159 149 Z M 239 149 L 237 151 Q 240 154 245 153 L 246 156 L 246 209 L 245 211 L 237 212 L 239 216 L 263 216 L 265 214 Q 264 211 259 212 L 256 210 L 256 185 L 258 183 L 286 183 L 287 188 L 286 192 L 287 194 L 287 208 L 284 212 L 278 212 L 278 215 L 280 216 L 304 216 L 305 212 Q 299 214 297 210 L 297 156 L 298 153 L 303 152 Q 307 153 305 149 L 279 149 L 278 152 L 285 153 L 286 155 L 286 180 L 277 180 L 276 179 L 256 179 L 256 156 Q 258 152 264 152 L 264 149 L 239 149 Z M 451 149 Q 448 150 450 152 L 451 153 L 457 153 L 458 156 L 458 209 L 457 211 L 455 212 Q 448 210 450 216 L 478 216 L 479 215 L 479 212 L 472 212 L 468 208 L 468 186 L 470 184 L 476 184 L 483 186 L 485 190 L 486 196 Q 490 197 489 195 L 489 193 L 489 172 L 486 171 L 484 178 Q 481 183 470 181 L 468 180 L 468 155 L 473 152 L 483 152 L 490 154 Q 494 157 494 166 L 497 167 L 498 166 L 498 151 L 497 149 L 451 149 Z M 359 273 L 356 277 L 336 329 L 333 331 Q 329 330 330 333 L 347 333 L 347 331 Q 342 332 340 329 L 340 325 L 345 312 L 351 311 Q 360 310 366 312 Q 370 319 372 329 L 369 331 Q 364 330 365 333 L 389 333 L 389 331 L 384 330 L 379 323 L 361 275 L 359 273 Z M 554 273 L 546 275 L 539 279 Q 530 286 528 299 L 528 310 L 533 323 Q 539 332 552 334 L 555 334 L 547 330 Q 540 324 538 314 L 538 293 L 542 283 L 552 275 Q 560 274 565 276 L 573 287 L 576 300 L 575 316 L 570 328 L 563 332 L 563 333 L 568 332 L 576 327 L 582 318 L 585 307 Q 586 293 580 286 Q 573 273 554 273 Z M 28 274 L 28 276 L 35 277 L 36 280 L 36 328 L 34 331 Q 27 329 28 333 L 51 333 Q 50 330 46 331 L 43 328 L 43 281 L 44 279 Q 45 275 50 276 L 50 274 L 28 274 Z M 77 274 L 77 276 L 84 277 L 85 279 Q 83 285 86 287 L 86 326 L 85 329 Q 83 332 78 331 L 79 333 L 96 333 Q 97 329 91 331 L 87 326 L 87 298 L 88 297 L 88 285 L 90 284 L 92 289 L 127 334 L 127 320 L 128 319 L 128 279 L 133 276 Q 136 277 135 274 L 118 274 L 117 276 Q 123 275 125 280 L 125 317 L 123 317 L 93 276 L 92 274 L 77 274 Z M 160 274 L 160 276 Q 166 275 168 280 L 168 328 L 167 330 L 165 331 Q 159 329 160 333 L 184 333 Q 183 330 179 331 L 176 328 L 176 305 L 177 304 L 176 302 L 176 281 L 177 279 L 183 276 L 183 274 L 160 274 Z M 211 274 L 209 276 L 209 290 L 211 291 L 215 280 Q 219 275 229 276 L 230 278 L 230 329 Q 228 332 223 331 L 222 333 L 248 333 L 248 331 L 241 330 L 239 329 L 239 276 L 251 277 L 255 282 L 257 290 L 260 289 Q 261 284 259 283 L 259 275 L 259 274 L 211 274 Z M 285 274 L 285 276 L 292 280 L 292 328 L 291 330 L 289 331 Q 283 329 284 333 L 308 333 L 308 331 L 303 330 L 301 330 L 301 323 L 301 321 L 300 317 L 300 302 L 301 301 L 301 293 L 300 292 L 300 281 L 301 279 L 305 277 L 308 276 L 308 274 L 285 274 Z M 404 274 L 404 282 L 403 283 Q 401 289 405 291 L 409 280 L 413 277 L 423 276 L 424 278 L 424 329 L 420 331 Q 414 329 415 333 L 441 333 L 441 331 Q 435 333 433 329 L 433 278 L 435 276 L 441 276 L 447 278 L 451 288 Q 450 291 453 290 L 453 275 L 453 274 L 404 274 Z M 480 274 L 478 276 L 485 277 L 486 280 L 486 328 L 485 330 L 478 331 L 479 333 L 501 333 Q 502 329 497 331 L 494 329 L 494 280 Q 496 275 502 276 L 502 274 L 480 274 Z M 610 274 L 610 276 L 616 277 L 618 281 L 619 290 Q 618 285 621 283 L 629 293 L 659 333 L 659 280 Q 660 275 666 276 L 664 274 L 651 274 L 650 276 L 656 277 L 658 281 L 658 319 L 657 319 L 627 279 L 623 274 L 610 274 Z M 619 311 L 618 321 L 619 321 L 619 311 Z M 619 324 Q 619 330 615 331 Q 609 329 610 333 L 627 333 L 623 331 L 619 324 Z M 558 333 L 558 334 L 561 334 L 558 333 Z " /><path fill="rgb(3,2,3)" stroke="rgb(3,2,3)" stroke-width="1" opacity="1" d="M 393.5 151 Q 408.6 149.9 413 159.5 L 417 169.5 L 418 188.5 L 415 201.5 L 406.5 212 L 400.5 214 L 395.5 214 L 385 209 L 379 196.5 L 377 181.5 L 378 180.5 L 379 165.5 Q 381.9 157.4 388.5 153 L 393.5 151 Z " /><path fill="rgb(3,2,3)" stroke="rgb(3,2,3)" stroke-width="1" opacity="1" d="M 44 152 Q 56.4 150.2 61 157.5 L 64 164.5 L 64 169.5 Q 62.5 178 56.5 182 Q 52.3 185.5 44 184 L 44 152 Z " /><path fill="rgb(3,2,3)" stroke="rgb(3,2,3)" stroke-width="1" opacity="1" d="M 111.5 163 L 121 186.5 L 119.5 188 L 103.5 188 L 102 185.5 L 111.5 163 Z " /><path fill="rgb(3,2,3)" stroke="rgb(3,2,3)" stroke-width="1" opacity="1" d="M 355.5 287 Q 358.1 286.2 357 289.5 L 365 309 L 347.5 309 L 347 306.5 L 355.5 287 Z " /><path fill="rgb(193,152,82)" stroke="rgb(193,152,82)" stroke-width="1" opacity="1" d="M 324 0 L 326 0.5 L 324 1.5 L 324 0 Z " /><path fill="rgb(193,152,82)" stroke="rgb(193,152,82)" stroke-width="1" opacity="1" d="M 339 0 Q 343 -1.4 341 5.5 L 339.5 8 L 339 0 Z " /><path fill="rgb(193,152,82)" stroke="rgb(193,152,82)" stroke-width="1" opacity="1" d="M 354 0 Q 359.3 -1.8 357 5.5 L 355.5 12 L 354 9.5 L 354 0 Z " /><path fill="rgb(193,152,82)" stroke="rgb(193,152,82)" stroke-width="1" opacity="1" d="M 369.5 0 L 372 1.5 L 371.5 9 L 369.5 0 Z " /><path fill="rgb(193,152,82)" stroke="rgb(193,152,82)" stroke-width="1" opacity="1" d="M 26.5 37 L 70.5 37 L 72 38.5 L 72 52.5 L 70.5 54 L 66 42 L 59.5 40 L 54.5 40 L 53 41.5 L 53 87.5 Q 55.3 91 61 90 L 60.5 93 L 36 93 Q 34.3 88.5 39.5 90 L 44 87.5 L 45 48.5 L 44 47.5 L 44 40 Q 35.5 39 31 42 L 28 53 L 25 52.5 L 25 38.5 L 26.5 37 Z " /><path fill="rgb(193,152,82)" stroke="rgb(193,152,82)" stroke-width="1" opacity="1" d="M 92 37 L 113.5 37 L 114 39.5 L 108 42.5 L 107 44.5 L 107 60.5 L 108 63 L 132 63 L 132 42.5 L 125 39.5 L 126.5 37 L 146.5 37 L 147 39.5 L 141 42.5 L 141 87.5 L 142.5 89 L 148 90 L 147.5 93 L 125 93 Q 123.3 88.5 128.5 90 L 132 87.5 L 132 66 L 108 66 L 107 71.5 L 107 85.5 L 108 89 L 115 91.5 L 114.5 93 L 92 93 Q 90.3 88.5 95.5 90 L 98 89 L 99 86.5 L 99 43.5 L 98 41 Q 93.4 42.3 92 39.5 L 92 37 Z " /><path fill="rgb(193,152,82)" stroke="rgb(193,152,82)" stroke-width="1" opacity="1" d="M 168 37 L 206.5 37 L 208 38.5 L 208 51.5 L 205 52 L 204 45.5 L 200.5 41 L 183 41 L 183 61.5 Q 184.5 64.5 190.5 63 L 196 59.5 L 197 54 Q 200.8 52.5 200 55.5 L 200 57.5 L 200 72.5 L 198.5 74 L 193.5 66 L 184.5 66 L 183 67.5 L 183 86.5 L 185.5 89 Q 188.7 91.3 195.5 90 Q 196.8 87.8 201.5 89 L 205 85.5 Q 205.3 79.8 208.5 77 L 210 77.5 L 210 93 L 168.5 93 L 167 91.5 L 174 89 Q 175.7 84.1 175 75.5 L 174 74.5 L 174 41 Q 169.4 42.3 168 39.5 L 168 37 Z " /><path fill="rgb(193,152,82)" stroke="rgb(193,152,82)" stroke-width="1" opacity="1" d="M 113 148 L 117 148 L 117 149.5 L 135 194.5 L 137 202.5 L 143.5 212 Q 149.3 209.9 148 214.5 L 146.5 216 L 122.5 216 L 121 212 Q 126.7 213 129 209.5 L 124 193.5 L 121.5 191 L 100.5 191 L 100 192.5 Q 95.3 199.3 94 209.5 Q 95.7 213.5 102 212 L 101.5 216 L 83.5 216 Q 79 214 82.5 212 Q 87.6 212.6 89 209.5 L 100 184.5 L 113 148 Z M 112 163 L 102 186 L 104 188 L 120 188 L 121 187 L 112 163 Z " /><path fill="rgb(193,152,82)" stroke="rgb(193,152,82)" stroke-width="1" opacity="1" d="M 389.5 148 Q 403.5 146 411.5 150 L 423 159.5 Q 431.1 168.4 430 186.5 L 428 195.5 L 424 203.5 L 415.5 212 L 403.5 217 L 392.5 217 Q 377.9 214.1 371 203.5 Q 364 194.5 365 177.5 L 369 163.5 L 378.5 153 L 389.5 148 Z M 394 151 L 389 153 Q 382 157 379 166 L 378 181 L 377 182 L 379 197 L 385 209 L 396 214 L 401 214 L 407 212 L 415 202 L 418 189 L 417 170 L 413 160 Q 409 150 394 151 Z " /><path fill="rgb(193,152,82)" stroke="rgb(193,152,82)" stroke-width="1" opacity="1" d="M 25 149 L 57.5 149 L 62.5 150 L 71 155.5 Q 76.2 159.8 75 170.5 Q 73.4 179.4 66.5 183 L 59.5 186 L 44 187 L 44 209.5 L 46.5 212 Q 51.8 210.8 53 213.5 Q 53.9 216.5 49.5 215 L 48.5 216 L 26.5 216 L 25 212 Q 30.7 213 33 209.5 L 33 154.5 L 31.5 153 L 25 152 L 25 149 Z M 44 152 L 44 184 Q 52 186 57 182 Q 63 178 64 170 L 64 165 L 61 158 Q 56 150 44 152 Z " /><path fill="rgb(193,152,82)" stroke="rgb(193,152,82)" stroke-width="1" opacity="1" d="M 159 149 L 215 149 L 215 168 Q 211.2 169.5 212 166.5 Q 210.6 157.9 205.5 153 L 193.5 152 L 192 153.5 L 192 208.5 L 193 211 Q 195.4 212.8 201.5 212 L 203 213.5 L 201.5 216 L 173.5 216 L 172 214.5 L 172 212 L 177.5 212 L 181 211 L 182 208.5 L 182 153.5 Q 181.3 151.3 177.5 152 Q 175.8 154.8 169.5 153 L 165 156.5 L 162 168 L 158 166.5 L 159 149 Z " /><path fill="rgb(193,152,82)" stroke="rgb(193,152,82)" stroke-width="1" opacity="1" d="M 238.5 149 L 263.5 149 L 264 152 Q 258.3 151.6 256 155.5 L 256 179 L 275.5 179 L 276.5 180 L 286 180 L 286 154.5 L 284.5 153 L 278 152 L 278.5 149 L 305 149 Q 306.7 153.1 302.5 152 L 298 153 L 297 155.5 L 297 209.5 Q 298.7 213.5 305 212 L 303.5 216 L 279.5 216 L 278 214.5 L 278 212 L 283.5 212 L 287 207.5 L 287 193.5 L 286 191.5 L 287 187.5 L 286 183 L 257.5 183 L 256 184.5 L 256 209.5 L 258.5 212 Q 263.8 210.8 265 213.5 L 262.5 216 L 238.5 216 L 237 212 L 245 211 L 246 208.5 L 246 155.5 L 245 153 Q 239.7 153.7 237 150.5 L 238.5 149 Z " /><path fill="rgb(193,152,82)" stroke="rgb(193,152,82)" stroke-width="1" opacity="1" d="M 450.5 149 L 496.5 149 L 498 150.5 L 498 165.5 L 496.5 167 L 494 165.5 Q 494.3 157.3 489.5 154 L 482.5 152 L 472.5 152 L 468 154.5 L 468 179.5 L 469.5 181 Q 480.7 183.2 484 177.5 L 486 171 L 489 171.5 L 489 192.5 L 489 194.5 Q 489.7 197.5 486 196 L 485 189.5 L 482.5 186 L 475.5 184 L 469.5 184 L 468 185.5 L 468 207.5 L 471.5 212 L 478.5 212 L 479 214.5 L 477.5 216 L 450 216 Q 447.8 210 454.5 212 L 457 211 L 458 208.5 L 458 155.5 L 457 153 L 450.5 153 L 450 151.5 Q 447.8 150.3 450.5 149 Z " /><path fill="rgb(193,152,82)" stroke="rgb(193,152,82)" stroke-width="1" opacity="1" d="M 358.5 273 L 361 274.5 L 379 322.5 L 383.5 330 L 389 331 L 388.5 333 L 365 333 Q 363.7 329.7 368.5 331 L 372 328.5 Q 370.4 318.6 365.5 312 Q 360 309.5 350.5 311 L 345 312 L 340 324.5 L 340 328.5 Q 342 331.8 347 331 L 346.5 333 L 330 333 Q 328.8 330 332.5 331 L 336 329 L 356 276.5 L 358.5 273 Z M 356 287 L 347 307 L 348 309 L 365 309 L 357 290 Q 358 286 356 287 Z " /><path fill="rgb(193,152,82)" stroke="rgb(193,152,82)" stroke-width="1" opacity="1" d="M 553.5 273 Q 572.7 273.3 580 285.5 Q 585.5 293 585 306.5 L 582 317.5 L 575.5 327 L 567.5 332 L 562.5 333 L 562.5 332 L 570 327.5 L 575 315.5 L 576 299.5 L 573 286.5 L 564.5 276 Q 559.8 273.8 551.5 275 L 542 282.5 L 538 292.5 L 538 313.5 Q 540 324 546.5 330 L 555 333.5 L 551.5 334 Q 538.9 331.6 533 322.5 L 528 309.5 L 528 298.5 Q 530 285.5 538.5 279 L 545.5 275 L 553.5 273 Z " /><path fill="rgb(193,152,82)" stroke="rgb(193,152,82)" stroke-width="1" opacity="1" d="M 28 274 L 49.5 274 L 50 276 Q 45.3 275 44 278.5 L 43 280.5 L 43 327.5 L 45.5 331 Q 50 330 51 332.5 L 28 333 Q 26.6 329 33.5 331 L 36 327.5 L 36 279.5 L 35 277 L 28 276 L 28 274 Z " /><path fill="rgb(193,152,82)" stroke="rgb(193,152,82)" stroke-width="1" opacity="1" d="M 77 274 L 91.5 274 L 93 275.5 L 123 317 L 125 316.5 L 125 279.5 Q 122.9 275.1 117 276 L 117.5 274 L 135 274 Q 136.3 277 132.5 276 L 128 278.5 L 128 318.5 L 127 319.5 L 126.5 334 L 92 288.5 L 90 284 L 88 284.5 L 88 296.5 L 87 297.5 L 87 325.5 L 90.5 331 Q 97.4 329 96 333 L 78.5 333 L 78 331 Q 83 331.8 85 328.5 L 86 325.5 L 86 286.5 Q 83.2 284.8 85 278.5 L 83.5 277 L 77 276 L 77 274 Z " /><path fill="rgb(193,152,82)" stroke="rgb(193,152,82)" stroke-width="1" opacity="1" d="M 160 274 L 182.5 274 L 183 276 L 177 278.5 L 176 280.5 L 176 301.5 L 177 303.5 L 176 304.5 L 176 327.5 L 178.5 331 Q 183 330 184 332.5 L 160 333 Q 158.7 329.3 164.5 331 L 167 330 L 168 327.5 L 168 279.5 Q 165.9 275.1 160 276 L 160 274 Z " /><path fill="rgb(193,152,82)" stroke="rgb(193,152,82)" stroke-width="1" opacity="1" d="M 210.5 274 L 258.5 274 L 259 274.5 L 259 282.5 Q 261.3 283.8 260 288.5 L 257 290 L 255 281.5 L 250.5 277 L 239 276 L 239 328.5 L 240.5 330 L 248 331 L 247.5 333 L 221.5 333 L 222.5 331 Q 228 331.5 230 328.5 L 230 277.5 L 228.5 276 Q 218.8 274.8 215 279.5 L 210.5 291 L 209 289.5 L 209 275.5 L 210.5 274 Z " /><path fill="rgb(193,152,82)" stroke="rgb(193,152,82)" stroke-width="1" opacity="1" d="M 285 274 L 307.5 274 L 308 275.5 L 304.5 277 L 301 278.5 L 300 280.5 L 300 291.5 L 301 292.5 L 301 300.5 L 300 301.5 L 300 316.5 L 301 320.5 L 301 322.5 L 301 329.5 L 302.5 330 L 308 331 L 307.5 333 L 284 333 Q 282.6 329.3 288.5 331 L 291 330 L 292 327.5 L 292 279.5 L 285 275.5 L 285 274 Z " /><path fill="rgb(193,152,82)" stroke="rgb(193,152,82)" stroke-width="1" opacity="1" d="M 404 274 L 452.5 274 L 453 274.5 L 453 290 Q 450 291.3 451 287.5 L 446.5 278 L 440.5 276 L 434.5 276 L 433 277.5 L 433 328.5 Q 434.7 332.5 441 331 L 440.5 333 L 415 333 Q 413.6 329.3 419.5 331 L 424 328.5 L 424 277.5 L 422.5 276 L 412.5 277 L 409 279.5 L 404.5 291 Q 401.3 289.3 403 282.5 L 404 281.5 L 404 274 Z " /><path fill="rgb(193,152,82)" stroke="rgb(193,152,82)" stroke-width="1" opacity="1" d="M 479.5 274 L 501.5 274 L 502 276 Q 496.1 275.1 494 279.5 L 494 328.5 L 496.5 331 Q 502.4 329.3 501 333 L 478.5 333 L 478 331 L 485 330 L 486 327.5 L 486 279.5 L 485 277 L 478 275.5 L 479.5 274 Z " /><path fill="rgb(193,152,82)" stroke="rgb(193,152,82)" stroke-width="1" opacity="1" d="M 610 274 L 622.5 274 L 627 278.5 L 656.5 319 L 658 318.5 L 658 280.5 L 655.5 277 L 650 276 L 650.5 274 L 663.5 274 L 666 275.5 Q 660.4 275.4 659 279.5 L 658.5 333 L 629 292.5 L 620.5 283 Q 617.6 284.6 618.5 290 L 618 280.5 L 615.5 277 L 610 276 L 610 274 Z " /><path fill="rgb(193,152,82)" stroke="rgb(193,152,82)" stroke-width="1" opacity="1" d="M 618.5 311 L 619 320.5 L 618 320.5 L 618.5 311 Z " /><path fill="rgb(193,152,82)" stroke="rgb(193,152,82)" stroke-width="1" opacity="1" d="M 618.5 324 L 622.5 331 L 627 332.5 L 610 333 Q 608.6 329.3 614.5 331 Q 618.6 329.6 618.5 324 Z " /><path fill="rgb(193,152,82)" stroke="rgb(193,152,82)" stroke-width="1" opacity="1" d="M 557.5 333 L 561 333.5 L 557.5 334 L 557.5 333 Z " /></svg>